<svg width="238" height="33" viewBox="0 0 238 33" fill="none" xmlns="http://www.w3.org/2000/svg">
<path d="M32.4067 19.5527C32.4564 19.5753 32.506 19.5979 32.5572 19.6211C34.4384 20.4847 36.1555 21.6572 37.6831 23.0284C37.7748 23.1099 37.8671 23.1908 37.9615 23.2692C38.3674 23.6071 38.7449 23.9711 39.1215 24.3393C39.2308 24.4461 39.3404 24.5525 39.4502 24.659C39.8265 25.0252 40.1914 25.3969 40.5356 25.7923C40.6098 25.8752 40.6842 25.958 40.7586 26.0408C40.8293 26.1201 40.8999 26.1994 40.9704 26.2788C41.0065 26.3189 41.0426 26.359 41.0798 26.4004C41.1145 26.4395 41.1492 26.4785 41.1849 26.5188C41.2157 26.5533 41.2466 26.5879 41.2783 26.6235C41.3708 26.7427 41.4353 26.8648 41.5 27C41.0948 26.8709 40.6939 26.7335 40.2939 26.5902C38.0415 25.7863 35.75 25.233 33.3711 24.9201C33.288 24.909 33.2049 24.898 33.1193 24.8865C30.6021 24.5666 27.963 24.584 25.4489 24.9201C25.3658 24.9309 25.2827 24.9417 25.197 24.9529C22.7209 25.2856 20.3011 25.9449 17.9925 26.875C17.6789 27 17.6789 27 17.5267 27C17.6229 26.7519 17.7379 26.5239 17.87 26.2921C17.9113 26.2197 17.9525 26.1474 17.9949 26.0728C18.0398 25.9947 18.0846 25.9166 18.1294 25.8385C18.1523 25.7985 18.1751 25.7586 18.1987 25.7174C18.5618 25.0824 18.9351 24.4537 19.3135 23.8273C19.612 23.3315 19.896 22.8293 20.1759 22.3234C20.473 21.7893 20.7853 21.2644 21.1033 20.7418C21.2924 20.4302 21.4765 20.1183 21.6457 19.7959C21.6753 19.7404 21.7049 19.6849 21.7354 19.6277C21.7892 19.5259 21.8415 19.4234 21.8919 19.3199C22.0967 18.9349 22.3467 18.8135 22.7622 18.6805C22.8373 18.6561 22.8373 18.6561 22.9139 18.6311C23.0635 18.5853 23.2136 18.544 23.365 18.5044C23.4189 18.4901 23.4728 18.4759 23.5283 18.4612C23.9814 18.3446 24.4315 18.2597 24.8978 18.2109C25.0087 18.1985 25.0087 18.1985 25.1219 18.186C27.6439 17.9637 30.1306 18.5132 32.4067 19.5527Z" fill="#030303"/>
<path d="M29.2378 6C29.4313 6.1765 29.5683 6.3399 29.692 6.56793C29.7241 6.62638 29.7563 6.68483 29.7894 6.74505C29.8403 6.83912 29.8403 6.83912 29.8922 6.9351C29.9662 7.06953 30.0403 7.20389 30.1145 7.33818C30.1521 7.40627 30.1897 7.47436 30.2284 7.54451C30.3958 7.84441 30.5698 8.14051 30.7447 8.4363C31.0473 8.94853 31.345 9.46319 31.6403 9.97943C31.9594 10.5369 32.2852 11.0899 32.6176 11.64C32.9801 12.2403 33.3257 12.8479 33.6638 13.4616C33.9352 13.9534 34.2157 14.4393 34.5016 14.9231C34.7713 15.3797 35.0364 15.8388 35.3 16.2987C35.6287 16.8719 35.9606 17.443 36.296 18.0124C36.6072 18.5414 36.9126 19.0734 37.2169 19.6061C37.4092 19.9418 37.6036 20.2758 37.8053 20.6063C37.8411 20.6651 37.8769 20.724 37.9137 20.7846C37.9808 20.8943 38.0485 21.0038 38.1168 21.1128C38.1462 21.161 38.1757 21.2092 38.206 21.2589C38.2319 21.3005 38.2579 21.3422 38.2847 21.3852C38.3311 21.4984 38.3311 21.4984 38.2622 21.6997C38.171 21.6157 38.171 21.6157 38.0779 21.5301C37.6399 21.1293 37.1991 20.739 36.7297 20.373C36.5599 20.2393 36.3936 20.1022 36.2281 19.9635C35.709 19.5291 35.1684 19.1253 34.6223 18.7237C34.4788 18.6174 34.3362 18.51 34.194 18.4019C32.8585 17.3895 31.4649 16.4796 29.9956 15.6613C29.9362 15.6283 29.8769 15.5952 29.8158 15.5612C28.3481 14.7535 26.5964 13.9594 24.8722 14.298C24.7159 14.3434 24.5657 14.3919 24.4156 14.4537C24.5008 14.185 24.6013 13.9482 24.7439 13.7039C24.782 13.6381 24.8201 13.5724 24.8593 13.5046C24.9004 13.4345 24.9415 13.3644 24.9839 13.2921C25.0716 13.1411 25.1594 12.99 25.2471 12.839C25.2925 12.7611 25.3379 12.6831 25.3833 12.6052C25.5528 12.3136 25.7206 12.021 25.8883 11.7284C26.2539 11.0903 26.6231 10.4544 26.9965 9.82063C27.262 9.36942 27.5226 8.91569 27.7825 8.46146C28.2561 7.63437 28.7446 6.81617 29.2378 6Z" fill="black"/>
<path d="M10.5 10.9649C11.7503 10.9649 13.0007 10.9649 14.2889 10.9649C14.2889 16.2565 14.2889 21.5481 14.2889 27C13.0386 27 11.7882 27 10.5 27C10.5 21.7084 10.5 16.4168 10.5 10.9649Z" fill="black"/>
<path d="M10.5 6C11.7503 6 13.0007 6 14.2889 6C14.2889 7.21773 14.2889 8.43546 14.2889 9.6901C13.0386 9.6901 11.7882 9.6901 10.5 9.6901C10.5 8.47236 10.5 7.25463 10.5 6Z" fill="#E2232B"/>
<path d="M212.313 11.3077C212.376 11.3537 212.439 11.3998 212.505 11.4472C213.691 12.3714 214.28 13.8287 214.482 15.2492C214.514 15.6656 214.518 16.0786 214.514 16.496C214.515 16.5994 214.516 16.7027 214.517 16.8093C214.511 18.5121 213.994 20.0741 212.769 21.3317C211.44 22.5663 209.713 23.0078 207.904 22.9832C206.036 22.8987 204.42 22.473 203.092 21.119C201.926 19.7841 201.597 18.2188 201.605 16.5111C201.606 16.4082 201.606 16.3053 201.607 16.1994C201.629 14.4911 202.109 12.9247 203.345 11.6603C205.585 9.57263 209.899 9.45223 212.313 11.3077ZM205.136 12.273C205.084 12.3083 205.031 12.3437 204.977 12.3801C204.011 13.0914 203.606 14.322 203.439 15.439C203.255 16.9631 203.373 18.7346 204.346 20.012C204.514 20.2096 204.689 20.3871 204.886 20.5581C204.997 20.6577 204.997 20.6577 205.11 20.7592C206.126 21.5459 207.46 21.6955 208.724 21.6038C209.785 21.4794 210.86 21.1127 211.589 20.3287C212.711 18.9387 212.906 17.0706 212.688 15.3639C212.54 14.3904 212.244 13.5066 211.562 12.7556C211.52 12.707 211.478 12.6583 211.435 12.6082C210.699 11.8174 209.588 11.5039 208.517 11.4431C207.299 11.4009 206.14 11.5587 205.136 12.273Z" fill="#020202"/>
<path d="M217.57 10.262C224.412 10.262 224.412 10.262 225.748 11.4686C226.529 12.3249 226.578 13.3302 226.517 14.421C226.459 15.0023 226.206 15.5193 225.831 15.9731C225.797 16.0165 225.762 16.0598 225.727 16.1045C225.25 16.6374 224.562 16.8902 223.912 17.1797C224.031 17.5002 224.19 17.7611 224.388 18.0425C224.419 18.086 224.449 18.1295 224.48 18.1743C224.545 18.2674 224.611 18.3603 224.676 18.4531C224.848 18.6974 225.019 18.9426 225.189 19.1878C225.223 19.2366 225.257 19.2853 225.292 19.3355C225.617 19.8028 225.927 20.2779 226.235 20.7553C226.55 21.2393 226.882 21.7099 227.225 22.1753C227.5 22.5524 227.5 22.5524 227.5 22.73C227.179 22.7535 226.857 22.7676 226.535 22.7802C226.445 22.787 226.354 22.7937 226.261 22.8007C225.601 22.82 225.601 22.82 225.323 22.5791C225.168 22.3683 225.04 22.1532 224.913 21.9256C224.817 21.7788 224.721 21.6326 224.623 21.4869C224.523 21.3316 224.423 21.1762 224.324 21.0206C224.215 20.8511 224.105 20.6817 223.996 20.5122C223.941 20.4268 223.886 20.3413 223.829 20.2533C223.561 19.8407 223.291 19.4301 223.02 19.0197C222.972 18.9469 222.924 18.8741 222.874 18.7991C222.684 18.5116 222.494 18.2252 222.293 17.9445C222.159 17.7428 222.159 17.7428 222.159 17.5819C221.223 17.5819 220.287 17.5819 219.322 17.5819C219.322 19.2808 219.322 20.9796 219.322 22.73C218.744 22.73 218.166 22.73 217.57 22.73C217.57 18.6155 217.57 14.5011 217.57 10.262ZM219.322 11.6295C219.322 13.1691 219.322 14.7086 219.322 16.2949C219.787 16.2982 220.252 16.3015 220.73 16.3049C220.875 16.3064 221.02 16.3079 221.169 16.3094C222.219 16.3156 223.229 16.2594 224.105 15.6313C224.645 15.0987 224.767 14.5097 224.767 13.7826C224.757 13.2077 224.634 12.742 224.22 12.3034C223.24 11.5347 221.912 11.6073 220.725 11.6194C220.262 11.6227 219.799 11.626 219.322 11.6295Z" fill="#020202"/>
<path d="M167.001 10.262C173.844 10.262 173.844 10.262 175.179 11.4686C175.96 12.3249 176.009 13.3302 175.948 14.421C175.89 15.0023 175.637 15.5193 175.262 15.9731C175.228 16.0165 175.194 16.0598 175.158 16.1045C174.681 16.6374 173.993 16.8902 173.343 17.1797C173.462 17.5002 173.622 17.7611 173.82 18.0425C173.85 18.086 173.88 18.1295 173.912 18.1743C173.977 18.2674 174.042 18.3603 174.107 18.4531C174.279 18.6974 174.45 18.9426 174.621 19.1878C174.654 19.2366 174.688 19.2853 174.723 19.3355C175.048 19.8028 175.359 20.2779 175.667 20.7553C175.981 21.2393 176.313 21.7099 176.656 22.1753C176.931 22.5524 176.931 22.5524 176.931 22.73C176.61 22.7535 176.289 22.7676 175.966 22.7802C175.876 22.787 175.785 22.7937 175.692 22.8007C175.033 22.82 175.033 22.82 174.754 22.5791C174.599 22.3683 174.471 22.1532 174.344 21.9256C174.249 21.7788 174.152 21.6326 174.055 21.4869C173.955 21.3316 173.855 21.1762 173.755 21.0206C173.646 20.8511 173.537 20.6817 173.427 20.5122C173.372 20.4268 173.317 20.3413 173.26 20.2533C172.993 19.8407 172.722 19.4301 172.451 19.0197C172.403 18.9469 172.355 18.8741 172.306 18.7991C172.116 18.5116 171.925 18.2252 171.725 17.9445C171.591 17.7428 171.591 17.7428 171.591 17.5819C170.654 17.5819 169.718 17.5819 168.754 17.5819C168.754 19.2808 168.754 20.9796 168.754 22.73C168.175 22.73 167.597 22.73 167.001 22.73C167.001 18.6155 167.001 14.5011 167.001 10.262ZM168.754 11.6295C168.754 13.1691 168.754 14.7086 168.754 16.2949C169.218 16.2982 169.683 16.3015 170.162 16.3049C170.307 16.3064 170.451 16.3079 170.601 16.3094C171.651 16.3156 172.661 16.2594 173.536 15.6313C174.076 15.0987 174.199 14.5097 174.198 13.7826C174.188 13.2077 174.066 12.742 173.651 12.3034C172.671 11.5347 171.343 11.6073 170.156 11.6194C169.693 11.6227 169.231 11.626 168.754 11.6295Z" fill="#020202"/>
<path d="M182.689 10.262C183.185 10.262 183.68 10.262 184.191 10.262C184.619 11.1291 185.017 12.0047 185.401 12.8901C185.575 13.2896 185.749 13.6887 185.924 14.0879C185.96 14.1705 185.996 14.2531 186.033 14.3382C186.383 15.1412 186.737 15.9428 187.092 16.7442C187.668 18.0477 188.243 19.3518 188.815 20.6569C188.886 20.8179 188.956 20.9789 189.027 21.1399C189.124 21.362 189.222 21.5841 189.319 21.8062C189.348 21.8721 189.377 21.938 189.407 22.0059C189.446 22.0965 189.446 22.0965 189.487 22.189C189.51 22.2413 189.533 22.2937 189.556 22.3476C189.609 22.4732 189.654 22.6015 189.699 22.73C189.093 22.73 188.487 22.73 187.863 22.73C187.679 22.3209 187.495 21.9118 187.311 21.5026C187.248 21.3637 187.186 21.2248 187.123 21.086C186.194 19.0218 186.194 19.0218 186.194 18.7885C184.376 18.815 182.559 18.8416 180.686 18.8689C180.442 19.4313 180.198 19.9937 179.946 20.5732C179.869 20.7501 179.792 20.927 179.713 21.1093C179.652 21.2502 179.59 21.391 179.529 21.5319C179.498 21.6045 179.466 21.6771 179.434 21.7519C179.403 21.8221 179.373 21.8923 179.341 21.9646C179.302 22.0554 179.302 22.0554 179.261 22.1481C179.178 22.3414 179.098 22.5357 179.017 22.73C178.439 22.73 177.861 22.73 177.265 22.73C177.327 22.4323 177.383 22.2228 177.504 21.9523C177.536 21.8792 177.568 21.8061 177.602 21.7308C177.655 21.6121 177.655 21.6121 177.709 21.491C177.746 21.407 177.784 21.3229 177.822 21.2364C177.945 20.9582 178.069 20.6802 178.193 20.4023C178.28 20.2073 178.367 20.0123 178.453 19.8173C178.588 19.5137 178.723 19.2101 178.858 18.9066C179.29 17.9356 179.719 16.9636 180.148 15.9914C180.871 14.3527 181.597 12.7149 182.326 11.0785C182.447 10.8064 182.568 10.5342 182.689 10.262ZM183.357 12.1925C183.329 12.2772 183.301 12.3619 183.273 12.4492C182.943 13.4388 182.546 14.393 182.126 15.3497C182.03 15.5702 181.933 15.7908 181.838 16.0114C181.779 16.147 181.719 16.2826 181.66 16.418C181.633 16.4793 181.606 16.5407 181.579 16.6038C181.555 16.657 181.532 16.7101 181.508 16.7649C181.42 16.9806 181.347 17.2013 181.271 17.421C182.702 17.421 184.134 17.421 185.61 17.421C185.203 16.3717 185.203 16.3717 184.777 15.3299C184.719 15.1908 184.661 15.0517 184.603 14.9125C184.514 14.7 184.425 14.4875 184.336 14.2751C184.248 14.0654 184.16 13.8556 184.073 13.6458C184.046 13.5832 184.02 13.5206 183.993 13.456C183.82 13.0398 183.666 12.6196 183.524 12.1925C183.469 12.1925 183.413 12.1925 183.357 12.1925Z" fill="#020202"/>
<path d="M101.662 10.262C102.158 10.262 102.654 10.262 103.164 10.262C103.592 11.1291 103.99 12.0047 104.375 12.8901C104.548 13.2896 104.723 13.6887 104.897 14.0879C104.933 14.1705 104.969 14.2531 105.006 14.3382C105.357 15.1412 105.71 15.9428 106.065 16.7442C106.641 18.0477 107.216 19.3518 107.788 20.6569C107.859 20.8179 107.929 20.9789 108 21.1399C108.098 21.362 108.195 21.5841 108.292 21.8062C108.321 21.8721 108.35 21.938 108.38 22.0059C108.419 22.0965 108.419 22.0965 108.46 22.189C108.483 22.2413 108.506 22.2937 108.529 22.3476C108.582 22.4732 108.627 22.6015 108.672 22.73C108.066 22.73 107.46 22.73 106.836 22.73C106.652 22.3209 106.468 21.9118 106.284 21.5026C106.222 21.3637 106.159 21.2248 106.097 21.086C105.167 19.0218 105.167 19.0218 105.167 18.7885C103.35 18.815 101.532 18.8416 99.6596 18.8689C99.4152 19.4313 99.1708 19.9937 98.919 20.5732C98.8421 20.7501 98.7653 20.927 98.686 21.1093C98.6248 21.2502 98.5636 21.391 98.5025 21.5319C98.4709 21.6045 98.4393 21.6771 98.4068 21.7519C98.3763 21.8221 98.3458 21.8923 98.3144 21.9646C98.275 22.0554 98.275 22.0554 98.2347 22.1481C98.1517 22.3414 98.0713 22.5357 97.9907 22.73C97.4124 22.73 96.8341 22.73 96.2383 22.73C96.3001 22.4323 96.3565 22.2228 96.477 21.9523C96.5093 21.8792 96.5416 21.8061 96.5748 21.7308C96.628 21.6121 96.628 21.6121 96.6823 21.491C96.7195 21.407 96.7568 21.3229 96.7952 21.2364C96.9187 20.9582 97.0427 20.6802 97.1667 20.4023C97.2533 20.2073 97.3399 20.0123 97.4265 19.8173C97.5612 19.5137 97.696 19.2101 97.831 18.9066C98.2629 17.9356 98.6922 16.9636 99.1212 15.9914C99.8445 14.3527 100.57 12.7149 101.299 11.0785C101.42 10.8064 101.541 10.5342 101.662 10.262ZM102.33 12.1925C102.302 12.2772 102.275 12.3619 102.246 12.4492C101.917 13.4388 101.519 14.393 101.099 15.3497C101.003 15.5702 100.907 15.7908 100.811 16.0114C100.752 16.147 100.693 16.2826 100.633 16.418C100.606 16.4793 100.579 16.5407 100.552 16.6038C100.529 16.657 100.505 16.7101 100.481 16.7649C100.394 16.9806 100.32 17.2013 100.244 17.421C101.676 17.421 103.108 17.421 104.583 17.421C104.176 16.3717 104.176 16.3717 103.75 15.3299C103.692 15.1908 103.634 15.0517 103.576 14.9125C103.487 14.7 103.398 14.4875 103.309 14.2751C103.221 14.0654 103.134 13.8556 103.046 13.6458C103.02 13.5832 102.993 13.5206 102.966 13.456C102.793 13.0398 102.639 12.6196 102.497 12.1925C102.442 12.1925 102.387 12.1925 102.33 12.1925Z" fill="#020202"/>
<path d="M156.153 10.262C158.769 10.262 161.385 10.262 164.08 10.262C164.08 10.7133 164.08 11.1645 164.08 11.6295C162.043 11.6295 160.005 11.6295 157.905 11.6295C157.905 12.9302 157.905 14.2308 157.905 15.5709C159.806 15.5709 161.706 15.5709 163.663 15.5709C163.663 16.0222 163.663 16.4735 163.663 16.9384C161.763 16.9384 159.863 16.9384 157.905 16.9384C157.905 18.3983 157.905 19.8583 157.905 21.3625C159.943 21.3625 161.981 21.3625 164.08 21.3625C164.08 21.8138 164.08 22.265 164.08 22.73C161.464 22.73 158.848 22.73 156.153 22.73C156.153 18.6155 156.153 14.5011 156.153 10.262Z" fill="#020202"/>
<path d="M135.124 10.262C137.741 10.262 140.357 10.262 143.052 10.262C143.052 10.7133 143.052 11.1645 143.052 11.6295C141.014 11.6295 138.976 11.6295 136.877 11.6295C136.877 12.9302 136.877 14.2308 136.877 15.5709C138.777 15.5709 140.677 15.5709 142.635 15.5709C142.635 16.0222 142.635 16.4735 142.635 16.9384C140.735 16.9384 138.835 16.9384 136.877 16.9384C136.877 18.3983 136.877 19.8583 136.877 21.3625C138.915 21.3625 140.952 21.3625 143.052 21.3625C143.052 21.8138 143.052 22.265 143.052 22.73C140.436 22.73 137.82 22.73 135.124 22.73C135.124 18.6155 135.124 14.5011 135.124 10.262Z" fill="#020202"/>
<path d="M132.621 10.7446C132.705 10.986 132.705 10.986 132.597 11.2354C132.545 11.3304 132.492 11.4248 132.439 11.5189C132.387 11.6128 132.336 11.7067 132.284 11.8035C132.12 12.0317 132.12 12.0317 131.973 12.1155C131.685 12.1102 131.43 12.0167 131.161 11.9261C129.591 11.4295 127.941 11.3333 126.42 12.0467C125.221 12.666 124.626 13.5204 124.188 14.7455C123.719 16.3061 123.923 18.202 124.726 19.624C125.312 20.5377 126.211 21.0845 127.281 21.3625C128.742 21.664 130.192 21.4971 131.632 21.1683C131.87 21.1212 131.87 21.1212 132.204 21.1212C132.204 21.5724 132.204 22.0237 132.204 22.4886C129.836 23.1226 127.05 23.3313 124.824 22.1417C123.372 21.2583 122.577 19.9521 122.201 18.3662C121.842 16.4773 121.999 14.2637 123.145 12.64C123.242 12.5164 123.341 12.394 123.442 12.273C123.484 12.218 123.527 12.1631 123.571 12.1064C124.536 10.9345 126.108 10.3576 127.599 10.1338C129.23 9.95706 131.115 10.0585 132.621 10.7446Z" fill="#020202"/>
<path d="M120.271 10.7446C120.354 10.986 120.354 10.986 120.247 11.2354C120.195 11.3304 120.142 11.4248 120.088 11.5189C120.037 11.6128 119.986 11.7067 119.934 11.8035C119.77 12.0317 119.77 12.0317 119.623 12.1155C119.335 12.1102 119.08 12.0167 118.811 11.9261C117.241 11.4295 115.591 11.3333 114.07 12.0467C112.871 12.666 112.276 13.5204 111.838 14.7455C111.369 16.3061 111.573 18.202 112.375 19.624C112.962 20.5377 113.861 21.0845 114.93 21.3625C116.392 21.664 117.841 21.4971 119.282 21.1683C119.52 21.1212 119.52 21.1212 119.854 21.1212C119.854 21.5724 119.854 22.0237 119.854 22.4886C117.486 23.1226 114.7 23.3313 112.474 22.1417C111.022 21.2583 110.227 19.9521 109.851 18.3662C109.492 16.4773 109.648 14.2637 110.795 12.64C110.892 12.5164 110.991 12.394 111.092 12.273C111.134 12.218 111.177 12.1631 111.221 12.1064C112.186 10.9345 113.758 10.3576 115.249 10.1338C116.88 9.95706 118.765 10.0585 120.271 10.7446Z" fill="#020202"/>
<path d="M48.4234 10.262C49.5082 10.262 49.5082 10.262 49.8403 10.5567C49.9332 10.6874 50.0223 10.8206 50.1079 10.9558C50.1566 11.0257 50.2052 11.0957 50.2553 11.1677C50.3531 11.3087 50.4496 11.4506 50.5445 11.5934C50.7199 11.8553 50.9085 12.1066 51.0989 12.3584C51.1655 12.4485 51.232 12.5387 51.2984 12.629C51.543 12.9606 51.7903 13.2905 52.0376 13.6203C52.0834 13.6813 52.1291 13.7423 52.1762 13.8051C52.2695 13.9295 52.3628 14.0538 52.4561 14.1782C52.6835 14.4815 52.9108 14.7849 53.1381 15.0883C53.2285 15.209 53.3189 15.3296 53.4093 15.4503C55.0365 17.6221 55.0365 17.6221 55.1722 17.8032C55.2623 17.9234 55.3523 18.0436 55.4424 18.1638C55.6736 18.4725 55.9048 18.7811 56.136 19.0898C56.1833 19.153 56.2306 19.2162 56.2794 19.2813C56.3682 19.3999 56.457 19.5184 56.5457 19.637C56.8968 20.1058 57.2497 20.5732 57.6025 21.0407C57.6025 17.4838 57.6025 13.9268 57.6025 10.262C57.9605 10.262 58.3185 10.262 58.6873 10.262C58.6873 14.3764 58.6873 18.4909 58.6873 22.73C57.519 22.73 57.519 22.73 57.2058 22.4641C57.1236 22.3441 57.0457 22.2213 56.9714 22.0965C56.8819 21.9626 56.7923 21.8287 56.7025 21.6949C56.6583 21.6261 56.6141 21.5573 56.5685 21.4864C56.3581 21.1662 56.1248 20.8632 55.8918 20.5581C55.8013 20.4375 55.7109 20.3169 55.6206 20.1961C55.5759 20.1364 55.5311 20.0767 55.485 20.0152C52.9086 16.5764 52.9086 16.5764 52.773 16.3955C52.6826 16.2747 52.5921 16.154 52.5016 16.0333C52.2764 15.7328 52.0514 15.4322 51.8267 15.1314C51.3019 14.4289 50.773 13.7295 50.2388 13.0335C50.1931 12.9739 50.1473 12.9142 50.1001 12.8527C50.0603 12.8008 50.0204 12.749 49.9793 12.6955C49.7924 12.4489 49.6089 12.1998 49.4247 11.9512C49.4247 15.5082 49.4247 19.0652 49.4247 22.73C49.0943 22.73 48.7638 22.73 48.4234 22.73C48.4234 18.6155 48.4234 14.5011 48.4234 10.262Z" fill="#020202"/>
<path d="M62.5259 10.262C69.8534 10.262 69.8534 10.262 71.6069 11.9182C73.0732 13.4839 73.3039 15.3089 73.207 17.3406C73.0815 18.8261 72.5051 20.1937 71.3683 21.2324C68.853 23.228 65.6045 22.73 62.5259 22.73C62.5259 18.6155 62.5259 14.5011 62.5259 10.262ZM63.6107 11.1468C63.6107 14.7038 63.6107 18.2608 63.6107 21.9256C67.4147 22.0513 67.4147 22.0513 70.688 20.4475C71.972 19.1094 72.118 17.3979 72.0551 15.6591C71.9714 14.3813 71.4238 13.2282 70.4533 12.3534C68.5688 10.8033 65.9102 11.1468 63.6107 11.1468Z" fill="#020202"/>
<path d="M189.866 10.262C193.335 10.262 196.805 10.262 200.38 10.262C200.38 10.7133 200.38 11.1645 200.38 11.6295C198.92 11.6295 197.461 11.6295 195.957 11.6295C195.957 15.2926 195.957 18.9558 195.957 22.73C195.379 22.73 194.801 22.73 194.205 22.73C194.205 19.0668 194.205 15.4036 194.205 11.6295C192.773 11.6295 191.341 11.6295 189.866 11.6295C189.866 11.1782 189.866 10.7269 189.866 10.262Z" fill="#020202"/>
<path d="M84.8896 10.262C85.1374 10.262 85.3852 10.262 85.6406 10.262C86.0113 10.9473 86.3326 11.6444 86.6397 12.3577C86.7843 12.6933 86.9301 13.0284 87.0758 13.3636C87.1231 13.4726 87.1231 13.4726 87.1714 13.5838C87.5415 14.4355 87.9172 15.2849 88.293 16.1342C88.4152 16.4106 88.5374 16.6869 88.6595 16.9633C89.0278 17.7964 89.3964 18.6294 89.7657 19.462C89.9219 19.8142 90.0779 20.1664 90.2338 20.5186C90.3074 20.6846 90.3811 20.8507 90.4548 21.0166C90.5564 21.2452 90.6577 21.4738 90.7589 21.7025C90.8038 21.8033 90.8038 21.8033 90.8497 21.9062C90.877 21.968 90.9043 22.0299 90.9324 22.0936C90.9561 22.1469 90.9798 22.2002 91.0041 22.2552C91.0646 22.4082 91.0646 22.4082 91.1481 22.73C90.735 22.73 90.3219 22.73 89.8964 22.73C89.6567 22.1875 89.4173 21.6449 89.1783 21.1022C89.0673 20.8502 88.9562 20.5982 88.8449 20.3464C88.717 20.057 88.5895 19.7674 88.4621 19.4779C88.422 19.3872 88.3818 19.2965 88.3404 19.2031C88.2853 19.0775 88.2853 19.0775 88.2291 18.9494C88.1965 18.8754 88.1638 18.8015 88.1302 18.7253C88.0605 18.5472 88.0605 18.5472 88.0605 18.3863C86.2155 18.4128 84.3705 18.4394 82.4696 18.4667C81.8363 19.8736 81.2029 21.2805 80.5503 22.73C80.1648 22.73 79.7793 22.73 79.3821 22.73C79.4439 22.4322 79.4987 22.2275 79.6207 21.9584C79.6692 21.8508 79.6692 21.8508 79.7186 21.741C79.7541 21.6634 79.7895 21.5858 79.826 21.5058C79.8819 21.3821 79.8819 21.3821 79.9389 21.256C80.0624 20.983 80.1864 20.7102 80.3104 20.4375C80.3973 20.2456 80.4842 20.0536 80.571 19.8617C80.7289 19.5126 80.8869 19.1635 81.0451 18.8145C81.447 17.928 81.8466 17.0405 82.2459 16.1529C82.365 15.8884 82.4841 15.6239 82.6032 15.3594C83.3677 13.6613 84.1291 11.9618 84.8896 10.262ZM85.2234 11.8708C85.2012 11.9264 85.1791 11.982 85.1563 12.0392C84.6612 13.2788 84.1436 14.5054 83.5892 15.7215C83.1198 16.5822 83.1198 16.5822 82.8868 17.5015C84.4565 17.5015 86.0261 17.5015 87.6433 17.5015C87.4764 17.0188 87.3046 16.5511 87.1029 16.0828C87.0756 16.0189 87.0483 15.955 87.0202 15.8891C86.9326 15.6841 86.8446 15.4792 86.7567 15.2743C86.6964 15.1334 86.6362 14.9925 86.5759 14.8515C86.4575 14.5745 86.339 14.2974 86.2204 14.0205C86.0121 13.5339 85.8053 13.0468 85.5989 12.5595C85.5406 12.4222 85.4824 12.2849 85.4241 12.1476C85.3854 12.0562 85.3467 11.9649 85.3068 11.8708C85.2793 11.8708 85.2517 11.8708 85.2234 11.8708Z" fill="#020202"/>
<path d="M145.973 10.262C146.551 10.262 147.129 10.262 147.725 10.262C147.725 13.9252 147.725 17.5883 147.725 21.3625C149.763 21.3625 151.8 21.3625 153.9 21.3625C153.9 21.8138 153.9 22.265 153.9 22.73C151.284 22.73 148.668 22.73 145.973 22.73C145.973 18.6155 145.973 14.5011 145.973 10.262Z" fill="#020202"/>
<path d="M76.378 10.262C76.736 10.262 77.094 10.262 77.4628 10.262C77.4628 14.3764 77.4628 18.4909 77.4628 22.73C77.1048 22.73 76.7468 22.73 76.378 22.73C76.378 18.6155 76.378 14.5011 76.378 10.262Z" fill="#020202"/>
<path d="M43.5 10.262C43.858 10.262 44.216 10.262 44.5848 10.262C44.5848 14.3764 44.5848 18.4909 44.5848 22.73C44.2268 22.73 43.8688 22.73 43.5 22.73C43.5 18.6155 43.5 14.5011 43.5 10.262Z" fill="#020202"/>
</svg>
